<?xml version="1.0" encoding="UTF-8" standalone="no"?>
<svg
    xmlns="http://www.w3.org/2000/svg"
    width="980.12781"
    height="96.586128"
    viewBox="0 0 259.32549 25.555081"
    version="1.1">
    <g style="fill:#fff;">
        <path aria-label="PIVOTAL"
              d="M 0,0 V 25.0486 H 4.027144 V 3.4824697 h 2.36058 c 0.50105,0.004 0.928234,0.0245 1.356506,0.0326 3.490525,0.0674 5.19865,1.45224 5.19865,4.16616 0,0.10936 0.0072,0.18114 0.0072,0.294031 0,2.5106193 -1.379212,4.1764893 -5.184697,4.1764893 -0.363678,0 -0.737517,-0.008 -1.124479,-0.005 0.0011,0.96008 -0.0035,2.74082 -0.0057,3.36672 0.392889,0.0189 0.75988,0.0356 1.136365,0.0356 5.460789,0 9.316744,-2.147279 9.316744,-7.5364893 0,-0.10583 -0.0057,-0.21622 -0.0057,-0.32453 C 17.082612,2.1021697 12.881624,1.5e-4 6.794867,1.5e-4 Z m 20.272149,0 v 3.7377597 h 3.86333 V 0 Z M 99.87142,5.2e-4 v 25.0517 h 3.87109 V 5.2e-4 Z m -28.47474,2.4773697 -3.91604,0.53743 V 20.3016 c 0,3.28468 1.62968,4.747 5.2834,4.747 h 4.94078 v -3.00343 h -3.65146 c -1.57162,0 -2.65668,-0.0461 -2.65668,-1.74357 V 9.4810797 h 6.30607 v -2.99982 h -6.30607 z m 16.87029,3.73982 c -5.08459,0 -8.23981,3.20698 -8.23981,8.3762303 v 2.03502 c 0,5.16432 3.15522,8.41964 8.23981,8.41964 0.11747,0 1.02077,0.004 1.43247,-0.0367 v -3.11712 c -0.15628,0 -1.31747,0.0408 -1.43247,0.0408 -2.76578,0 -4.62608,-2.13263 -4.62608,-5.30665 v -2.03502 c 0,-3.17405 1.8603,-5.3061303 4.62608,-5.3061303 1.25165,0 3.1406,0.10168 3.79253,0.23926 l 0.20722,0.0444 0.005,15.4807103 h 3.86953 V 7.7172897 c 0,-0.33056 -5.3e-4,-0.45746 -0.7028,-0.64337 -1.92933,-0.49636 -4.9444,-0.85628 -7.17113,-0.85628 z m -67.999473,0.26355 V 25.05222 h 3.872632 V 6.4812597 Z m 6.740673,0 v 2.72438 h 1.778704 L 33.282209,22.52731 c 0.70485,2.04223 1.900772,2.95537 3.887618,2.95537 1.337733,0 2.990493,-0.33628 3.917593,-2.95951 L 46.48037,6.4812597 H 42.78395 L 38.05711,21.39353 c -0.188383,0.63045 -0.303789,1.01751 -0.887283,1.01751 -0.561975,0 -0.686858,-0.38113 -0.889352,-1.01751 L 31.648197,6.4812597 Z m 29.00805,0 c -5.00909,0 -8.51007,3.30564 -8.51007,8.0418903 v 2.91765 c 0,4.7304 3.50098,8.04188 8.51007,8.04188 5.01156,0 8.50543,-3.31148 8.50543,-8.04188 v -2.91765 c 0,-4.7362503 -3.49387,-8.0418903 -8.50543,-8.0418903 z m 0,3.05408 c 3.01378,0 4.85552,2.2667303 4.85552,4.9878103 v 2.91765 c 0,2.71861 -1.85797,4.98522 -4.85552,4.98522 -3.10092,0 -4.85242,-2.26661 -4.85242,-4.98522 v -2.91765 c 0,-2.72108 1.67848,-4.9878103 4.85242,-4.9878103 z"/>
        <path aria-label="EDUCATION"
              d="m 231.22542,6.4539168 c -2.80065,0 -4.95793,0.820915 -6.47247,2.462383 -1.50609,1.6414672 -2.2593,3.9934732 -2.2593,7.0564172 0,3.062943 0.74875,5.427804 2.24638,7.094654 1.50609,1.65839 3.65942,2.48771 6.46007,2.48771 2.7668,0 4.90333,-0.83772 6.40943,-2.51303 1.51455,-1.67531 2.27169,-4.023375 2.27169,-7.044013 0,-3.029099 -0.75269,-5.376648 -2.25877,-7.0434982 -1.50609,-1.666851 -3.63868,-2.500623 -6.39703,-2.500623 z m -56.24979,0.02532 c -1.80223,0 -3.37138,0.385002 -4.70824,1.154968 -1.33687,0.769967 -2.36092,1.878519 -3.07165,3.3253792 -0.70228,1.44686 -1.05317,3.135144 -1.05317,5.06429 0,3.062944 0.72749,5.418896 2.18282,7.068816 1.45532,1.64147 3.54094,2.46239 6.25698,2.46239 1.84453,0 3.49425,-0.27478 4.94957,-0.82476 v -2.60191 c -0.79535,0.24538 -1.5609,0.44851 -2.29702,0.60927 -0.73613,0.1523 -1.49773,0.22841 -2.28461,0.22841 -1.81916,0 -3.21089,-0.58368 -4.17546,-1.75132 -0.95612,-1.16764 -1.43402,-2.88952 -1.43402,-5.165574 0,-2.174521 0.49916,-3.879602 1.49758,-5.114934 0.99842,-1.2353302 2.36889,-1.8531162 4.1119,-1.8531162 0.76996,0 1.50191,0.114163 2.19573,0.342614 0.70228,0.219991 1.36651,0.477973 1.99264,0.7741132 l 1.09141,-2.5254272 c -1.60762,-0.79535 -3.35916,-1.193209 -5.25446,-1.193209 z M 188.04822,6.6699228 181.106,25.30134 h 3.19825 l 1.81488,-5.15265 h 7.09466 l 1.85312,5.15265 h 3.22357 L 191.34827,6.6699248 Z m -73.89111,0.07596 V 25.301335 h 10.496 v -2.57658 H 117.19 v -5.825486 h 6.99338 V 14.360923 H 117.19 V 9.3095508 h 7.46311 v -2.563668 z m 14.51902,0 V 25.301335 h 5.19089 c 3.19833,0 5.64821,-0.80805 7.34891,-2.42414 1.70069,-1.62454 2.55075,-3.96815 2.55075,-7.031092 0,-2.88526 -0.8204,-5.12362 -2.46187,-6.7143202 -1.64146,-1.5907 -3.93914,-2.3859 -6.89208,-2.3859 z m 18.92339,0 V 18.701742 c 0,2.132213 0.63904,3.807123 1.91668,5.025533 1.27764,1.21841 3.06723,1.8278 5.36866,1.8278 1.54839,0 2.87688,-0.27478 3.98529,-0.82476 1.11688,-0.55844 1.96693,-1.3497 2.55075,-2.3735 0.59228,-1.03226 0.88831,-2.23372 0.88831,-3.60443 V 6.7458888 h -3.03289 V 18.46042 c 0,3.003721 -1.4303,4.505671 -4.29017,4.505671 -1.47225,0 -2.56348,-0.36375 -3.27422,-1.09141 -0.71074,-0.72766 -1.06609,-1.85747 -1.06609,-3.38894 V 6.7458888 Z m 51.08474,0 v 2.601908 h 5.45703 V 25.301335 h 3.03341 V 9.3477978 h 5.45754 v -2.601909 z m 16.80362,0 V 25.301351 h 3.0334 V 6.7458888 Z m 28.37863,0 V 25.301335 h 2.75435 v -9.645918 c 0,-1.30302 -0.0593,-2.741204 -0.17776,-4.314982 l -0.0636,-0.825273 h 0.1018 l 9.12502,14.786183 h 3.71864 l 5.3e-4,-18.5554622 h -2.77968 V 16.46777 c 0,0.685355 0.0252,1.641689 0.076,2.868555 0.0507,1.21841 0.0849,1.92465 0.1018,2.11926 h -0.0765 L 247.54742,6.7458828 Z m -12.64109,2.309936 c 1.80223,0 3.15642,0.588131 4.06177,1.7642332 0.9138,1.176103 1.37046,2.901924 1.37046,5.177979 0,2.309899 -0.46112,4.049094 -1.38338,5.216734 -0.91381,1.16764 -2.27194,1.75132 -4.07417,1.75132 -1.81069,0 -3.17723,-0.58813 -4.09949,-1.76424 -0.92227,-1.18456 -1.38338,-2.919298 -1.38338,-5.203814 0,-2.276055 0.46111,-4.001876 1.38338,-5.177979 0.93073,-1.1761022 2.30566,-1.7642332 4.12481,-1.7642332 z m -99.51589,0.22841 h 2.62723 c 4.15443,0 6.23166,2.2210452 6.23166,6.6631592 0,4.535187 -2.2339,6.802687 -6.7014,6.802687 h -2.15749 z m 57.97579,0 c 0.0846,0.338447 0.23735,0.8717252 0.45734,1.5993862 0.22845,0.72766 0.40586,1.260422 0.53278,1.598868 l 1.73892,5.051371 h -5.40691 l 1.67535,-4.835363 c 0.43998,-1.235331 0.77407,-2.373538 1.00252,-3.4142622 z"/>
    </g>
</svg>
